<?xml version="1.0" encoding="UTF-8" standalone="no"?>
<svg
   xmlns:dc="http://purl.org/dc/elements/1.1/"
   xmlns:cc="http://creativecommons.org/ns#"
   xmlns:rdf="http://www.w3.org/1999/02/22-rdf-syntax-ns#"
   xmlns:svg="http://www.w3.org/2000/svg"
   xmlns="http://www.w3.org/2000/svg"
   viewBox="0 0 1066.6667 1066.6667"
   height="1066.6667"
   width="1066.6667"
   xml:space="preserve"
   id="svg2"
   version="1.1"><metadata
     id="metadata8"><rdf:RDF><cc:Work
         rdf:about=""><dc:format>image/svg+xml</dc:format><dc:type
           rdf:resource="http://purl.org/dc/dcmitype/StillImage" /></cc:Work></rdf:RDF></metadata><defs
     id="defs6"><clipPath
       id="clipPath18"
       clipPathUnits="userSpaceOnUse"><path
         id="path16"
         d="M 0,800 H 800 V 0 H 0 Z" /></clipPath><clipPath
       id="clipPath26"
       clipPathUnits="userSpaceOnUse"><path
         id="path24"
         d="M -4.88281e-4,800 H 800 V 0 H -4.88281e-4 Z" /></clipPath><clipPath
       id="clipPath30"
       clipPathUnits="userSpaceOnUse"><path
         id="path28"
         d="M 800,0 H 0 v 800 h 800 z" /></clipPath><radialGradient
       id="radialGradient42"
       spreadMethod="pad"
       gradientTransform="matrix(563.45984,0,0,-563.45984,400,400)"
       gradientUnits="userSpaceOnUse"
       r="1"
       cy="0"
       cx="0"
       fy="0"
       fx="0"><stop
         id="stop36"
         offset="0"
         style="stop-opacity:0;stop-color:#ffffff" /><stop
         id="stop38"
         offset="0.4888388"
         style="stop-opacity:0;stop-color:#ffffff" /><stop
         id="stop40"
         offset="1"
         style="stop-opacity:0.29999237;stop-color:#ffffff" /></radialGradient><mask
       id="mask44"
       height="1"
       width="1"
       y="0"
       x="0"
       maskUnits="userSpaceOnUse"><g
         id="g54"><g
           id="g52"><g
             id="g50"><g
               id="g48"><path
                 id="path46"
                 style="fill:url(#radialGradient42);stroke:none"
                 d="M -32768,32767 H 32767 V -32768 H -32768 Z" /></g></g></g></g></mask><radialGradient
       id="radialGradient62"
       spreadMethod="pad"
       gradientTransform="matrix(563.45984,0,0,-563.45984,400,400)"
       gradientUnits="userSpaceOnUse"
       r="1"
       cy="0"
       cx="0"
       fy="0"
       fx="0"><stop
         id="stop56"
         offset="0"
         style="stop-opacity:1;stop-color:#ffffff" /><stop
         id="stop58"
         offset="0.4888388"
         style="stop-opacity:1;stop-color:#ffffff" /><stop
         id="stop60"
         offset="1"
         style="stop-opacity:1;stop-color:#1d1e1c" /></radialGradient><clipPath
       id="clipPath88"
       clipPathUnits="userSpaceOnUse"><path
         id="path86"
         d="M 0,800 H 800 V 0 H 0 Z" /></clipPath><clipPath
       id="clipPath120"
       clipPathUnits="userSpaceOnUse"><path
         id="path118"
         d="M 0,800 H 800 V 0 H 0 Z" /></clipPath></defs><g
     transform="matrix(1.3333333,0,0,-1.3333333,0,1066.6667)"
     id="g10"><g
       id="g12"><g
         clip-path="url(#clipPath18)"
         id="g14"><g
           id="g20"><g
             id="g22" /><g
             id="g80"><g
               id="g78"
               clip-path="url(#clipPath26)"><g
                 id="g76"><g
                   id="g74"
                   clip-path="url(#clipPath30)"><g
                     id="g72"><g
                       id="g64" /><g
                       id="g70"
                       mask="url(#mask44)"><g
                         id="g68"><path
                           id="path66"
                           style="fill:url(#radialGradient62);stroke:none"
                           d="M 800,0 H 0 v 800 h 800 z" /></g></g></g></g></g></g></g></g></g></g><g
       id="g82"><g
         clip-path="url(#clipPath88)"
         id="g84"><g
           transform="translate(373.9482,543.6133)"
           id="g90"><path
             id="path92"
             style="fill:#4d4d4d;fill-opacity:1;fill-rule:nonzero;stroke:none"
             d="m 0,0 c 0,0 -4.667,9.436 -20,7.717 0,0 35.793,32.772 72.333,24.949 C 60.681,30.879 60,15.333 60,15.333 60,15.333 25.667,17.666 0,0" /></g><g
           transform="translate(489.9482,509.2793)"
           id="g94"><path
             id="path96"
             style="fill:#4d4d4d;fill-opacity:1;fill-rule:nonzero;stroke:none"
             d="m 0,0 c 0,-3.313 -2.687,-6 -6,-6 -3.314,0 -6,2.687 -6,6 0,3.314 2.686,6 6,6 3.313,0 6,-2.686 6,-6 m 51,-36.333 c 0,2.946 -2.388,5.333 -5.334,5.333 -0.437,0 -0.856,-0.066 -1.264,-0.166 -6.734,23.594 -28.954,74.885 -95.124,76.652 -86.032,2.297 -115.912,-64.216 -116.923,-86.288 -0.495,-10.82 -1.02,-39.569 -16.337,-45.441 -15.318,-5.872 -33.444,-21.445 -38.549,-46.208 0,0 15.316,4.595 23.741,16.848 0,0 3.83,-10.976 16.084,-19.401 12.254,-8.425 11.232,-20.424 11.232,-20.424 0,0 13.276,10.212 4.34,55.909 -8.934,45.698 45.697,45.698 45.697,45.698 0,0 0.256,8.678 4.596,11.998 0,0 -5.617,-11.999 1.786,-19.403 7.405,-7.403 3.32,-11.743 3.32,-11.743 0,0 27.571,9.956 28.337,43.145 0,0 2.297,-6.383 1.276,-14.041 0,0 21.445,5.616 42.634,-2.043 0,0 -24.254,16.084 4.34,53.355 0,0 -32.422,-50.036 17.104,-57.184 39.815,-5.746 49.555,-1.509 54.451,1.563 0.985,-0.923 2.304,-1.492 3.759,-1.492 3.038,0 5.5,2.462 5.5,5.5 0,0.926 -0.231,1.798 -0.636,2.563 0.211,-0.025 0.418,-0.063 0.636,-0.063 2.946,0 5.334,2.387 5.334,5.333" /></g><g
           transform="translate(563.5811,459.0244)"
           id="g98"><path
             id="path100"
             style="fill:#4d4d4d;fill-opacity:1;fill-rule:nonzero;stroke:none"
             d="m 0,0 c 0,-29.891 -7.979,-58.921 -23.111,-84.415 -4.107,4.305 -9.045,8.751 -14.961,12.939 -6.877,4.83 -15.078,9.354 -24.53,12.543 -9.424,3.207 -20.074,5.019 -31.086,4.916 -11.015,-0.073 -22.31,-2.063 -33.082,-5.599 -10.806,-3.502 -21.049,-8.558 -30.596,-14.393 -1.199,-0.724 -2.352,-1.505 -3.529,-2.256 l -3.282,-2.137 -3.218,-2.116 -3.033,-1.951 c -4.129,-2.593 -8.31,-5.185 -12.493,-7.592 -8.382,-4.81 -16.774,-9.221 -25.104,-12.926 -8.322,-3.727 -16.555,-6.823 -24.53,-9.198 -7.974,-2.366 -15.684,-4.076 -22.925,-5.036 -7.24,-1.013 -13.999,-1.3 -20.04,-1.144 -2.58,0.061 -3.464,0.085 -5.761,0.302 -1.44,0.448 -2.159,1.618 -2.751,2.223 -30.467,31.133 -47.245,72.273 -47.245,115.84 0,91.333 74.305,165.639 165.638,165.639 C -74.305,165.639 0,91.333 0,0 M -16.237,-92.382 C 0.937,-64.664 10,-32.816 10,0 c 0,96.848 -78.791,175.639 -175.639,175.639 -96.847,0 -175.638,-78.791 -175.638,-175.639 0,-42.754 15.248,-83.295 43.125,-115.27 -1.247,0.329 -14.147,5.513 -14.147,5.513 0,0 5.107,-6.381 14.676,-11.239 4.241,-2.153 13.8,-5.946 20.198,-8.008 6.391,-2.064 13.89,-3.689 22.201,-4.428 8.304,-0.714 17.413,-0.623 26.893,0.59 9.481,1.19 19.326,3.43 29.163,6.626 9.848,3.182 19.662,7.354 29.232,12.24 4.785,2.462 9.479,5.073 14.148,7.884 l 3.537,2.159 c 1.154,0.708 2.197,1.398 3.299,2.103 l 3.245,2.077 c 1.012,0.635 2.014,1.298 3.033,1.912 8.121,4.982 16.474,9.36 24.947,12.588 8.464,3.257 17.008,5.478 25.409,6.457 8.396,0.991 16.647,0.765 24.462,-0.505 7.809,-1.279 15.198,-3.495 21.869,-6.27 6.692,-2.74 12.682,-5.98 17.879,-9.173 0.36,-0.221 0.707,-0.441 1.058,-0.661 0,0 2.405,-1.448 4.14,-2.689 3.001,-2.023 5.667,-3.976 7.983,-5.746 3.565,-2.748 6.304,-5.067 8.153,-6.69 1.848,-1.623 2.807,-2.548 2.807,-2.548 0,0 -0.445,1.256 -1.512,3.52 -1.071,2.26 -2.76,5.536 -5.308,9.492 -1.499,2.346 -3.307,4.937 -5.45,7.684" /></g><g
           transform="translate(443.1475,315.6113)"
           id="g102"><path
             id="path104"
             style="fill:#4d4d4d;fill-opacity:1;fill-rule:nonzero;stroke:none"
             d="m 0,0 c 0.386,0.342 0.791,0.703 1.217,1.081 0.444,0.35 0.91,0.715 1.394,1.096 0.968,0.772 2.047,1.558 3.193,2.427 0.572,0.435 1.17,0.875 1.794,1.313 0.638,0.415 1.295,0.842 1.968,1.279 1.352,0.876 2.8,1.756 4.31,2.7 3.109,1.676 6.492,3.563 10.271,5.121 0.941,0.406 1.894,0.817 2.859,1.233 0.987,0.359 1.986,0.723 2.997,1.09 2.024,0.736 4.107,1.464 6.276,2.034 2.156,0.62 4.359,1.232 6.628,1.678 1.134,0.237 2.274,0.475 3.419,0.716 1.151,0.213 2.318,0.362 3.485,0.547 1.168,0.174 2.344,0.342 3.525,0.494 1.185,0.105 2.375,0.211 3.566,0.317 2.382,0.255 4.786,0.274 7.186,0.35 2.402,0.071 4.802,-0.065 7.19,-0.125 1.193,-0.065 2.381,-0.172 3.565,-0.269 1.183,-0.106 2.367,-0.17 3.534,-0.349 2.339,-0.301 4.656,-0.6 6.92,-1.05 1.133,-0.222 2.262,-0.411 3.37,-0.662 1.105,-0.262 2.204,-0.521 3.292,-0.779 1.091,-0.239 2.154,-0.56 3.209,-0.859 1.055,-0.301 2.099,-0.595 3.122,-0.92 2.036,-0.686 4.034,-1.312 5.926,-2.088 3.817,-1.428 7.305,-3.078 10.462,-4.676 6.29,-3.279 11.136,-6.655 14.329,-9.261 3.209,-2.583 4.774,-4.372 4.774,-4.372 0,0 -2.263,0.673 -6.141,1.705 -1.937,0.52 -4.285,1.118 -6.956,1.768 -2.672,0.652 -5.684,1.328 -8.946,2.023 -3.274,0.657 -6.787,1.381 -10.516,1.97 -1.856,0.333 -3.779,0.571 -5.717,0.89 -1.957,0.236 -3.937,0.547 -5.961,0.754 -2.023,0.219 -4.069,0.464 -6.15,0.606 -2.073,0.221 -4.177,0.305 -6.29,0.449 C 74.991,8.367 72.857,8.38 70.723,8.482 69.654,8.487 68.584,8.491 67.513,8.495 66.441,8.513 65.369,8.533 64.299,8.479 62.157,8.427 60.013,8.42 57.884,8.268 56.817,8.214 55.753,8.161 54.691,8.107 53.633,8.016 52.577,7.924 51.526,7.832 50.475,7.739 49.421,7.683 48.38,7.562 47.339,7.438 46.303,7.315 45.273,7.192 43.201,7.003 41.178,6.662 39.173,6.366 38.174,6.202 37.166,6.107 36.188,5.916 35.206,5.734 34.233,5.555 33.271,5.377 32.303,5.207 31.345,5.039 30.398,4.872 29.458,4.668 28.529,4.466 27.613,4.268 23.909,3.563 20.468,2.603 17.203,1.864 15.599,1.424 14.063,0.977 12.575,0.59 11.83,0.396 11.104,0.208 10.396,0.025 9.7,-0.187 9.023,-0.394 8.367,-0.594 7.044,-0.979 5.812,-1.368 4.644,-1.682 4.061,-1.846 3.502,-2.002 2.968,-2.151 2.441,-2.321 1.939,-2.482 1.463,-2.636 c -3.824,-1.223 -6.149,-1.798 -6.149,-1.798 0,0 1.617,1.692 4.686,4.434" /></g></g></g><text
       id="text108"
       style="font-variant:normal;font-weight:500;font-stretch:normal;font-size:59.77059937px;font-family:'Myriad Pro';-inkscape-font-specification:Lato-Medium;writing-mode:lr-tb;fill:#4d4d4d;fill-opacity:1;fill-rule:nonzero;stroke:none"
       transform="matrix(1,0,0,-1,243.6719,215.5293)"><tspan
         id="tspan106"
         y="0"
         x="0 25.880671 67.062614 105.67442 146.85637 159.52773 198.85678 235.19731 283.25287">LOGO NAME</tspan></text>
<text
       id="text112"
       style="font-variant:normal;font-weight:300;font-stretch:normal;font-size:25.49970055px;font-family:'Myriad Pro';-inkscape-font-specification:Lato-Light;writing-mode:lr-tb;fill:#4d4d4d;fill-opacity:1;fill-rule:nonzero;stroke:none"
       transform="matrix(1,0,0,-1,302.7837,172.0566)"><tspan
         id="tspan110"
         y="0"
         x="0 14.789826 26.825684 42.431499 48.525928 69.027687 74.433624 90.906433 108.47572 121.02158 133.59293 138.99887 155.62466 168.17052 181.88936">CLAIM GOES HERE</tspan></text>
<g
       id="g114"><g
         clip-path="url(#clipPath120)"
         id="g116"><g
           transform="translate(215.6899,353.8828)"
           id="g122"><path
             id="path124"
             style="fill:#4d4d4d;fill-opacity:1;fill-rule:nonzero;stroke:none"
             d="m 0,0 c 3.337,-1.97 20.762,-16.136 29.083,-19.57 1.688,-0.854 3.381,-1.686 5.087,-2.482 1.691,-0.818 3.391,-1.609 5.095,-2.377 3.392,-1.562 6.822,-2.994 10.229,-4.398 3.424,-1.369 6.845,-2.679 10.282,-3.875 3.444,-1.181 6.867,-2.334 10.328,-3.3 3.436,-1.033 6.895,-1.92 10.349,-2.701 3.446,-0.814 6.918,-1.425 10.365,-2.006 3.453,-0.566 6.903,-0.991 10.347,-1.338 3.442,-0.358 6.882,-0.593 10.321,-0.712 3.438,-0.137 6.878,-0.166 10.319,-0.055 1.723,0.022 3.439,0.159 5.165,0.231 1.717,0.155 3.447,0.242 5.166,0.452 3.449,0.346 6.885,0.9 10.314,1.58 3.441,0.64 6.828,1.585 10.217,2.574 3.364,1.074 6.728,2.219 10.001,3.64 12.878,4.665 43.419,23.661 53.635,28.181 l 4.674,2 4.719,1.909 c 3.168,1.226 6.347,2.422 9.573,3.513 3.213,1.114 6.476,2.124 9.759,3.05 3.3,0.892 6.606,1.748 9.967,2.434 3.355,0.693 6.728,1.314 10.142,1.747 6.817,0.881 13.752,1.246 20.667,0.625 6.897,-0.603 13.795,-2.109 20.15,-4.974 3.163,-1.447 6.184,-3.209 8.923,-5.339 1.368,-1.068 2.675,-2.21 3.874,-3.465 1.209,-1.277 2.287,-2.546 3.276,-4.16 0,0 -11.471,6.785 -17.929,8.08 -7.195,1.597 -12.264,2.4 -18.51,2.161 -6.255,-0.251 -12.488,-1.256 -18.609,-2.774 -3.063,-0.746 -6.096,-1.671 -9.103,-2.657 -3.01,-0.978 -5.98,-2.122 -8.931,-3.291 -2.94,-1.217 -5.879,-2.425 -8.768,-3.782 -2.899,-1.321 -5.761,-2.745 -8.607,-4.193 l -4.241,-2.243 -4.203,-2.328 c -2.786,-1.583 -5.548,-3.212 -8.29,-4.88 l -4.098,-2.528 -4.079,-2.565 c -2.702,-1.746 -5.395,-3.503 -8.059,-5.314 -2.662,-1.812 -11.104,-7.51 -13.722,-9.395 -2.634,-1.857 -9.685,-6.444 -13.374,-8.34 -0.919,-0.481 -1.831,-0.977 -2.759,-1.443 l -2.808,-1.362 c -1.857,-0.944 -3.788,-1.747 -5.687,-2.625 -1.942,-0.779 -3.858,-1.641 -5.839,-2.345 l -2.957,-1.11 -2.997,-1.014 c -1.997,-0.69 -4.038,-1.256 -6.072,-1.851 -2.052,-0.529 -4.103,-1.087 -6.184,-1.521 -4.148,-0.945 -8.366,-1.635 -12.612,-2.062 -4.243,-0.468 -8.519,-0.632 -12.782,-0.562 -4.265,0.058 -8.52,0.388 -12.725,0.971 -4.204,0.589 -8.374,1.361 -12.455,2.42 -4.09,1.019 -8.092,2.312 -12.033,3.691 -3.936,1.402 -7.761,3.052 -11.521,4.774 -3.73,1.799 -7.4,3.67 -10.936,5.755 -3.544,2.068 -6.991,4.262 -10.312,6.617 -3.341,2.319 -6.537,4.828 -9.644,7.407 -1.54,1.311 -3.067,2.627 -4.557,3.981 C 11.244,-20.38 0,0 0,0" /></g></g></g></g></svg>